# xmcd
#
# Track frame offsets:
#	150
#	2610
#	14471
#	25884
#	37431
#	51115
#	60579
#	69878
#	83259
#	93943
#	106752
#	116318
#	129295
#	145668
#	157025
#	165329
#	169217
#	178929
#	188188
#	206578
#	210073
#	216382
#	235281
#
# Disc length: 3163 seconds
#
# Revision: 0
# Processed by: cddbd v1.5.2PL0 Copyright (c) Steve Scherf et al.
# Submitted via: dBpowerAMP V4.0
#
DISCID=2a0c5917
DTITLE=Dansez Country - Dansez Country
DYEAR=1900
DGENRE=Danse Country
TTITLE0=Cajun Banjo
TTITLE1=Rocking with the rythm of the rain
TTITLE2=Folsom prison blues
TTITLE3=Elvira
TTITLE4=Guitars Cadillacs
TTITLE5=Tush push
TTITLE6=Country grass
TTITLE7=Coal miner's daughter
TTITLE8=Shattahoochee
TTITLE9=I'm so lonesome I could cry
TTITLE10=Country shadows
TTITLE11=Jambalaya on the Bayou
TTITLE12=That don't impress me much
TTITLE13=It wasn't god who made honky tonk angels
TTITLE14=IDang me
TTITLE15=Guitar's wooning cajun violin
TTITLE16=I've been everywhere
TTITLE17=I'm walking the floor over you
TTITLE18=Who's cheatin' who
TTITLE19=Jig No 1
TTITLE20=Jig No 2
TTITLE21=Tush push Version longue
TTITLE22=Slide outro
EXTD=
EXTT0=
EXTT1=
EXTT2=
EXTT3=
EXTT4=
EXTT5=
EXTT6=
EXTT7=
EXTT8=
EXTT9=
EXTT10=
EXTT11=
EXTT12=
EXTT13=
EXTT14=
EXTT15=
EXTT16=
EXTT17=
EXTT18=
EXTT19=
EXTT20=
EXTT21=
EXTT22=
PLAYORDER=
